<svg id="Layer_1" data-name="Layer 1" xmlns="http://www.w3.org/2000/svg" viewBox="0 0 262 94"><defs><style>.cls-1{fill:#fff;}</style></defs><title>アートボード 2</title><path class="cls-1" d="M9.64,76.47a3.38,3.38,0,0,1-1.81-.53,3.34,3.34,0,0,1-1.52-2.8V20.23A3.34,3.34,0,0,1,11,17.16L38,28.68a10.29,10.29,0,0,1,2.11,17.7A10.28,10.28,0,0,1,38.21,64L11,76.18A3.2,3.2,0,0,1,9.64,76.47ZM13,58.8V68L35.49,57.92a3.61,3.61,0,0,0-.06-6.61l-2.94-1.25Zm0-17V51.5l11.16-5Zm0-7.24,19.45,8.27,3.07-1.37a3.61,3.61,0,0,0-.06-6.61L13,25.26Z"/><path class="cls-1" d="M64.45,57.07V37.48h8c3.29,0,5.41,1.91,5.41,5A4.47,4.47,0,0,1,74.46,47a4.9,4.9,0,0,1,3.82,4.81c0,3.26-2.11,5.29-5.61,5.29ZM76.14,42.65A3.53,3.53,0,0,0,72.29,39H66.12v7.25h6.17A3.49,3.49,0,0,0,76.14,42.65Zm.38,9a3.81,3.81,0,0,0-4.11-3.88H66.12v7.75h6.29C75,55.54,76.52,54.05,76.52,51.67Z"/><path class="cls-1" d="M99.72,57.07V37.48h1.7V55.54h9.49v1.53Z"/><path class="cls-1" d="M146.16,57.07l-1.94-4.82H133.85l-1.94,4.82H130l8-19.59h2.09l8,19.59Zm-7.11-17.8-4.64,11.46h9.25Z"/><path class="cls-1" d="M182.6,57.07,170.27,40.24V57.07h-1.68V37.48h1.71l12.27,16.59V37.48h1.68V57.07Z"/><path class="cls-1" d="M206,47.29a9.73,9.73,0,0,1,9.93-10.13,8.82,8.82,0,0,1,7.14,3.46l-1.41.91a7.14,7.14,0,0,0-5.73-2.84c-4.58,0-8.17,3.49-8.17,8.6s3.59,8.61,8.17,8.61a7.14,7.14,0,0,0,5.73-2.85l1.44.88a8.91,8.91,0,0,1-7.17,3.49A9.73,9.73,0,0,1,206,47.29Z"/><path class="cls-1" d="M244.08,57.07V37.48H256.5V39H245.75v7.25h10.54v1.53H245.75v7.75H256.5v1.53Z"/></svg>